<svg version="1.1" id="Layer_1" xmlns="http://www.w3.org/2000/svg" xmlns:xlink="http://www.w3.org/1999/xlink" x="0px" y="0px"
	 width="100%" viewBox="0 0 829 420" enable-background="new 0 0 829 420" xml:space="preserve">
<path fill="#FFFEFF" opacity="1.000000" stroke="none" 
	d="
M830.000000,197.000000 
	C830.000000,199.041672 830.000000,201.083328 829.685791,203.839630 
	C829.580994,209.702835 829.790527,214.851410 830.000000,220.000000 
	C830.000000,222.370560 830.000000,224.741104 829.616882,227.716919 
	C828.141113,235.218613 827.376343,242.185776 825.905151,249.000504 
	C811.197998,317.129913 754.147949,371.862274 675.869812,371.183319 
	C585.064636,370.395721 494.247345,370.999817 403.435303,370.999817 
	C401.674347,370.999817 399.913391,370.999817 397.140594,370.999817 
	C435.318390,324.406433 455.236420,271.840179 455.879333,212.563873 
	C456.523590,153.163452 437.619415,100.083458 400.632233,52.985790 
	C402.258118,52.903217 402.921692,52.840023 403.585266,52.839993 
	C496.396820,52.835339 589.209045,52.668442 682.019104,53.042210 
	C693.871155,53.089939 706.126770,54.508797 717.488403,57.761852 
	C777.046692,74.814568 811.481140,115.722488 825.945557,174.789139 
	C827.732483,182.086136 828.669250,189.591309 830.000000,197.000000 
M639.500000,153.834717 
	C599.592896,153.834717 559.685852,153.834717 519.819946,153.834717 
	C519.819946,192.876892 519.819946,231.259293 519.819946,269.999329 
	C521.907837,269.999329 523.717102,269.999329 525.526367,269.999329 
	C554.669006,269.999329 583.811707,269.999359 612.954346,269.999298 
	C626.776306,269.999268 640.599304,270.110565 654.419922,269.973236 
	C676.399109,269.754822 692.833008,258.650177 700.548279,238.217606 
	C707.404480,220.060257 707.302124,201.613739 699.832092,183.674744 
	C693.026855,167.331985 680.776062,156.918900 662.937256,154.463150 
	C655.568970,153.448776 647.985596,153.997116 639.500000,153.834717 
z"/>
<path fill="#FFFFFF" opacity="1.000000" stroke="none" 
	d="
M221.531372,1.000000 
	C228.779099,1.965445 235.567078,2.872659 242.335846,3.905805 
	C285.560120,10.503313 323.185059,28.789711 354.888672,58.815434 
	C390.731476,92.761292 412.471313,134.402100 418.542938,183.360168 
	C426.648041,248.714706 408.378296,306.337921 363.493774,354.714966 
	C328.533142,392.395874 284.841888,413.624664 233.810776,419.723114 
	C231.667801,419.979187 229.504105,420.061707 227.175018,420.612549 
	C215.979111,421.000000 204.958206,421.000000 193.302368,420.618256 
	C187.564316,419.540100 182.449509,418.919922 177.359909,418.135895 
	C90.984573,404.830688 21.127399,337.236511 4.877224,251.249786 
	C3.540191,244.174957 2.290353,237.083649 0.999999,230.000000 
	C1.000000,217.645767 1.000000,205.291550 1.372868,192.288986 
	C2.589632,185.546387 3.162994,179.400330 4.318040,173.365601 
	C21.403477,84.099968 90.170174,17.621946 179.656464,3.769430 
	C185.767426,2.823449 191.885330,1.922104 198.000000,1.000000 
	C205.687576,1.000000 213.375168,1.000000 221.531372,1.000000 
M20.325245,251.968872 
	C43.356644,356.934174 139.423935,407.196533 203.042694,404.448914 
	C203.078995,403.649567 203.147583,402.836029 203.148178,402.022430 
	C203.156860,390.031677 203.051895,378.039642 203.202637,366.050751 
	C203.277542,360.093445 205.835175,357.236267 210.454193,357.160400 
	C215.262741,357.081390 217.891281,360.179016 217.990219,366.259338 
	C218.074234,371.423065 218.008575,376.589233 218.008713,381.754303 
	C218.008926,389.535858 218.008774,397.317413 218.008774,405.690002 
	C273.271332,402.435303 319.261444,381.354553 355.630402,340.616211 
	C386.444794,306.099792 403.559784,265.796753 404.641907,218.544006 
	C401.839996,218.544006 399.873749,218.545456 397.907532,218.543747 
	C386.911163,218.534241 375.911835,218.672714 364.919708,218.451797 
	C359.346649,218.339783 356.795624,215.686279 356.831665,211.049606 
	C356.868561,206.300262 359.371948,203.957870 365.033173,203.851105 
	C376.520477,203.634476 388.010742,203.575974 399.499878,203.458481 
	C401.241608,203.440674 402.983673,203.455994 404.731384,203.455994 
	C401.909119,87.104187 295.211151,13.318268 218.177780,18.012104 
	C218.177780,20.144197 218.189423,22.294548 218.175827,24.444738 
	C218.106293,35.438919 218.124130,46.434906 217.907318,57.426239 
	C217.827805,61.456360 216.037766,64.568169 211.509415,64.967369 
	C207.779633,65.296173 204.877670,63.949009 203.926895,60.052071 
	C203.420181,57.975258 203.202560,55.782009 203.187378,53.638954 
	C203.114243,43.309303 203.168747,32.978809 203.141388,22.648710 
	C203.136353,20.744337 202.962753,18.840410 202.868164,16.960360 
	C89.391830,20.424784 14.878100,120.942284 17.233730,203.455978 
	C19.014685,203.455978 20.812513,203.439255 22.609949,203.458710 
	C33.932484,203.581268 45.257782,203.598129 56.576321,203.882614 
	C63.329353,204.052322 67.251587,210.382111 63.261002,215.053772 
	C61.453827,217.169373 57.512505,218.283951 54.487957,218.390244 
	C43.504868,218.776215 32.500008,218.531433 21.503429,218.556366 
	C19.761206,218.560318 18.019354,218.728043 15.584031,218.856674 
	C17.163319,230.095779 18.642439,240.622025 20.325245,251.968872 
z"/>
<path fill="#FFFFFF" opacity="1.000000" stroke="none" 
	d="
M178.186142,193.152771 
	C181.705612,186.440796 186.914398,182.106354 192.993530,178.294617 
	C227.930084,156.388474 262.719299,134.247360 297.562714,112.192665 
	C298.966492,111.304108 300.376038,110.412086 301.847412,109.645561 
	C305.111847,107.944962 308.330963,107.934929 311.003052,110.692169 
	C313.568268,113.339149 314.207062,116.501663 312.220428,119.801903 
	C308.449768,126.065910 304.657776,132.319107 300.754974,138.501221 
	C280.869659,170.000137 261.009735,201.515594 240.940247,232.896912 
	C238.870575,236.133102 235.868637,239.144119 232.628113,241.203552 
	C196.418869,264.215698 160.089340,287.038818 123.744736,309.837128 
	C121.402191,311.306549 118.767845,312.672058 116.096863,313.180786 
	C110.675690,314.213318 106.995895,309.964783 108.590019,304.697662 
	C109.299454,302.353668 110.569603,300.120422 111.889519,298.028931 
	C133.897720,263.155701 155.954208,228.312927 178.186142,193.152771 
M142.946014,280.112549 
	C168.368973,264.086456 193.791916,248.060349 218.128784,232.718903 
	C208.387314,222.806030 198.863037,213.114166 189.232117,203.313782 
	C173.418137,228.518066 157.420898,254.014420 141.166016,279.953918 
	C141.224518,280.197632 141.283020,280.441345 141.341522,280.685059 
	C141.650940,280.547089 141.960358,280.409119 142.946014,280.112549 
M233.728210,170.205856 
	C223.143600,176.919479 212.558990,183.633118 203.133301,189.611664 
	C212.774536,199.571365 222.286591,209.397614 231.832352,219.258682 
	C247.871384,193.786407 263.997131,168.176422 280.122864,142.566437 
	C279.809540,142.226501 279.496216,141.886581 279.182922,141.546646 
	C264.245300,150.987534 249.307678,160.428421 233.728210,170.205856 
z"/>
</svg>